#!OML:ASF X:\für Bonn\!DataBase\2005_08_10_Bjorn_Final\c3d\bjorn.ASF
:FULLY-SPECIFIED
:DEGREES
249
root 9.85702 18.9417 20.208 -338.799 -236.493 -339.164
lowerback -2.76682 4.66322 5.25974
upperback 4.66442 6.03053 0.517139
thorax 6.91836 3.27478 -1.8271
lowerneck 3.06419 0.655294 5.92542
upperneck 5.75087 1.2836 -3.71386
head 1.35202 0.777878 -2.19376
rclavicle 1.05157e-013 4.77083e-015
rhumerus -37.2989 16.5446 -105.343
rradius 97.2386
rwrist 6.28113
rhand -26.0409 29.4532
rfingers 7.12502
rthumb 0.506206 -0.525945
lclavicle 1.05157e-013 4.77083e-015
lhumerus -61.1282 -20.4821 97.0495
lradius 82.5356
lwrist -4.28046
lhand -47.8166 -22.9364
lfingers 7.12502
lthumb -20.4921 6.00216
rfemur 14.6645 -6.14 17.9824
rtibia 33.0839
rfoot 18.433 15.0723
rtoes -31.2859
lfemur -30.5942 14.003 -30.9718
ltibia 33.7537
lfoot -6.14726 -4.22005
ltoes -0.189051
250
root 10.1461 18.8953 20.1195 -339.021 -235.542 -339.3
lowerback -2.91906 4.56905 5.251
upperback 4.65302 5.9001 0.404398
thorax 6.99517 3.21307 -1.94059
lowerneck 2.72028 0.663943 5.97187
upperneck 6.08289 1.26925 -3.31287
head 1.5135 0.779598 -2.07021
rclavicle -5.36719e-014 1.27222e-014
rhumerus -37.6031 16.6518 -105.492
rradius 96.6795
rwrist 6.82882
rhand -26.3227 29.8789
rfingers 7.12502
rthumb 0.234068 -0.10067
lclavicle -5.36719e-014 1.27222e-014
lhumerus -60.6743 -20.9312 96.7629
lradius 82.8699
lwrist -3.7548
lhand -47.5236 -23.6766
lfingers 7.12502
lthumb -20.2106 5.292
rfemur 14.0633 -6.24265 18.0329
rtibia 35.3601
rfoot 18.1314 14.5724
rtoes -29.8934
lfemur -29.8974 13.8316 -30.8008
ltibia 33.716
lfoot -6.16649 -3.73551
ltoes 2.78701
251
root 10.4354 18.8336 20.0266 -339.473 -234.66 -339.78
lowerback -3.14776 4.47041 5.04113
upperback 4.65738 5.77443 0.219693
thorax 7.11861 3.14578 -2.01199
lowerneck 2.28498 0.670803 6.11764
upperneck 6.52376 1.25425 -3.04038
head 1.72974 0.784894 -2.0084
rclavicle -3.83654e-014 -1.59028e-015
rhumerus -37.8854 16.5566 -105.607
rradius 95.9369
rwrist 7.56233
rhand -26.8526 30.7459
rfingers 7.12502
rthumb -0.277696 0.766322
lclavicle -3.83654e-014 -1.59028e-015
lhumerus -60.1596 -21.3471 96.4173
lradius 83.2679
lwrist -3.33365
lhand -47.0691 -24.3379
lfingers 7.12502
lthumb -19.7737 4.6763
rfemur 13.3663 -6.47774 17.7268
rtibia 37.7494
rfoot 17.5575 14.1689
rtoes -29.1978
lfemur -29.2333 13.4404 -30.8348
ltibia 33.8632
lfoot -6.30106 -3.27759
ltoes 4.7065
252
root 10.7201 18.7568 19.9331 -340.029 -233.783 -340.268
lowerback -3.23909 4.35771 4.85515
upperback 4.70325 5.64063 0.0311717
thorax 7.20966 3.07808 -2.11125
lowerneck 1.89942 0.676143 6.27784
upperneck 6.85077 1.23408 -2.79982
head 1.90212 0.787072 -1.95976
rclavicle -1.55052e-014 7.95139e-015
rhumerus -38.2376 16.1147 -105.691
rradius 95.1883
rwrist 8.53899
rhand -27.3943 31.9441
rfingers 7.12502
rthumb -0.800877 1.9659
lclavicle -1.55052e-014 7.95139e-015
lhumerus -59.6282 -21.7614 96.0623
lradius 83.7531
lwrist -2.95045
lhand -46.598 -24.9122
lfingers 7.12502
lthumb -19.3208 4.14799
rfemur 12.7307 -6.80347 17.2933
rtibia 40.2249
rfoot 16.6445 13.8097
rtoes -29.7271
lfemur -28.3907 12.5859 -30.6873
ltibia 34.2553
lfoot -6.70213 -2.50961
ltoes 7.33886
253
root 11.0004 18.6681 19.8408 -340.506 -232.88 -340.591
lowerback -3.26826 4.24317 4.78503
upperback 4.79361 5.50151 -0.114789
thorax 7.31996 3.0154 -2.23327
lowerneck 1.61169 0.69084 6.29922
upperneck 6.95711 1.21721 -2.45783
head 1.9829 0.785743 -1.85155
rclavicle 4.17448e-014 -4.29375e-014
rhumerus -38.6479 15.5892 -105.667
rradius 94.497
rwrist 9.41392
rhand -27.8008 33.0346
rfingers 7.12502
rthumb -1.19355 3.05822
lclavicle 4.17448e-014 -4.29375e-014
lhumerus -59.0525 -22.1011 95.6865
lradius 84.2852
lwrist -2.77618
lhand -46.1509 -25.3887
lfingers 7.12502
lthumb -18.8908 3.71396
rfemur 12.1116 -7.22578 16.8634
rtibia 42.7494
rfoot 15.5621 13.4838
rtoes -31.1981
lfemur -27.4618 11.3259 -30.2748
ltibia 34.9209
lfoot -7.59431 -1.62069
ltoes 10.7906
254
root 11.2778 18.5762 19.7458 -341.029 -231.982 -340.966
lowerback -3.28511 4.11711 4.68953
upperback 4.8991 5.35087 -0.265477
thorax 7.43597 2.94684 -2.34828
lowerneck 1.42379 0.722851 6.24052
upperneck 6.88691 1.21952 -2.00595
head 1.98677 0.79123 -1.69211
rclavicle 1.82882e-014 -5.40694e-014
rhumerus -39.0816 14.964 -105.516
rradius 93.9163
rwrist 10.1405
rhand -27.8089 33.6995
rfingers 7.12502
rthumb -1.20133 3.7231
lclavicle 1.82882e-014 -5.40694e-014
lhumerus -58.4307 -22.4255 95.312
lradius 84.8455
lwrist -2.71073
lhand -45.8204 -25.6661
lfingers 7.12502
lthumb -18.5729 3.46722
rfemur 11.4394 -7.84869 16.2486
rtibia 45.3134
rfoot 14.4458 13.4561
rtoes -33.1957
lfemur -26.64 10.0683 -29.9602
ltibia 35.8643
lfoot -8.91496 -0.743584
ltoes 12.7349
255
root 11.5517 18.484 19.6511 -341.589 -231.094 -341.43
lowerback -3.30163 3.97119 4.49966
upperback 5.00695 5.17904 -0.390635
thorax 7.54011 2.86187 -2.3875
lowerneck 1.26061 0.758105 6.08026
upperneck 6.74505 1.22847 -1.58757
head 1.96224 0.795046 -1.52612
rclavicle 1.35174e-013 -7.95139e-015
rhumerus -39.5252 14.2668 -105.232
rradius 93.4065
rwrist 10.5774
rhand -27.3756 34.1782
rfingers 7.12502
rthumb -0.782843 4.19986
lclavicle 1.35174e-013 -7.95139e-015
lhumerus -57.7461 -22.6274 94.9949
lradius 85.3398
lwrist -2.69717
lhand -45.619 -26.0507
lfingers 7.12502
lthumb -18.3792 3.10104
rfemur 10.6746 -8.54525 15.4834
rtibia 47.9036
rfoot 13.4719 13.5016
rtoes -34.6966
lfemur -25.9483 8.74135 -29.7496
ltibia 37.0446
lfoot -10.4134 0.0176816
ltoes 14.0522
256
root 11.8198 18.3848 19.5572 -342.216 -230.265 -342.086
lowerback -3.36829 3.83019 4.18017
upperback 5.092 5.02142 -0.545358
thorax 7.6407 2.77615 -2.38234
lowerneck 1.15267 0.785651 5.98708
upperneck 6.55353 1.23805 -1.3068
head 1.91455 0.797046 -1.41751
rclavicle -3.85642e-014 7.95139e-015
rhumerus -40.0155 13.5055 -104.875
rradius 92.9615
rwrist 10.9955
rhand -27.2786 33.8742
rfingers 7.12502
rthumb -0.689124 3.89561
lclavicle -3.85642e-014 7.95139e-015
lhumerus -56.9308 -22.7039 94.7022
lradius 85.7121
lwrist -2.83067
lhand -45.4034 -26.4924
lfingers 7.12502
lthumb -18.1718 2.67872
rfemur 9.77917 -9.18388 14.5214
rtibia 50.5238
rfoot 12.6328 13.4875
rtoes -35.6471
lfemur -25.4199 7.41253 -29.7579
ltibia 38.362
lfoot -12.104 0.872768
ltoes 14.3198
257
root 12.0809 18.2781 19.4637 -342.907 -229.422 -342.85
lowerback -3.43333 3.67103 3.83183
upperback 5.20719 4.84717 -0.735809
thorax 7.77336 2.68339 -2.39958
lowerneck 0.928968 0.81043 5.91786
upperneck 6.38962 1.2376 -1.07076
head 1.89695 0.793347 -1.32833
rclavicle -5.28767e-014 -1.90833e-014
rhumerus -40.407 12.6677 -104.496
rradius 92.4242
rwrist 11.4402
rhand -27.328 33.1942
rfingers 7.12502
rthumb -0.736878 3.21575
lclavicle -5.28767e-014 -1.90833e-014
lhumerus -55.8872 -22.807 94.391
lradius 86.0249
lwrist -2.99047
lhand -45.2125 -26.8567
lfingers 7.12502
lthumb -17.9881 2.33142
rfemur 8.80155 -9.80123 13.4337
rtibia 53.1442
rfoot 12.0378 13.6509
rtoes -36.3487
lfemur -24.9495 6.04406 -29.8822
ltibia 39.7534
lfoot -13.9003 1.69016
ltoes 14.7875
258
root 12.3348 18.1709 19.3688 -343.564 -228.529 -343.557
lowerback -3.42883 3.48249 3.56308
upperback 5.32114 4.6321 -0.912007
thorax 7.86811 2.57468 -2.45561
lowerneck 0.679145 0.84928 5.89518
upperneck 6.25594 1.26035 -0.960313
head 1.89694 0.800236 -1.28787
rclavicle 1.55052e-014 1.90833e-014
rhumerus -40.8226 11.8357 -104.09
rradius 91.7699
rwrist 11.5889
rhand -27.3091 32.6634
rfingers 7.12502
rthumb -0.718655 2.68489
lclavicle 1.55052e-014 1.90833e-014
lhumerus -54.7255 -22.8866 94.1418
lradius 86.3119
lwrist -3.17028
lhand -45.0938 -27.1748
lfingers 7.12502
lthumb -17.8739 2.02382
rfemur 7.77901 -10.3734 12.3636
rtibia 55.7388
rfoot 11.6275 13.8262
rtoes -36.9414
lfemur -24.4715 4.61111 -29.9976
ltibia 41.1654
lfoot -15.7628 2.5713
ltoes 15.2815
259
root 12.5845 18.067 19.2715 -344.227 -227.599 -344.241
lowerback -3.34442 3.2805 3.27891
upperback 5.4437 4.4026 -1.0532
thorax 7.92076 2.45722 -2.47259
lowerneck 0.320803 0.891367 5.88268
upperneck 6.18131 1.28253 -0.917016
head 1.93639 0.806378 -1.27104
rclavicle 1.39547e-013 -2.22639e-014
rhumerus -41.2183 10.9216 -103.576
rradius 90.8825
rwrist 11.8085
rhand -27.4278 32.3898
rfingers 7.12502
rthumb -0.833269 2.41169
lclavicle 1.39547e-013 -2.22639e-014
lhumerus -53.5122 -23.0205 93.9667
lradius 86.6135
lwrist -3.35572
lhand -44.9383 -27.1141
lfingers 7.12502
lthumb -17.7243 2.09807
rfemur 6.74364 -10.861 11.3184
rtibia 58.2594
rfoot 11.2397 13.9199
rtoes -37.7784
lfemur -23.9401 3.15627 -30.1171
ltibia 42.5437
lfoot -17.6305 3.43469
ltoes 15.7224
260
root 12.8303 17.9653 19.1754 -344.85 -226.684 -344.86
lowerback -3.20987 3.08331 3.00352
upperback 5.59283 4.18331 -1.19244
thorax 7.97542 2.34679 -2.49258
lowerneck -0.224971 0.969084 5.86045
upperneck 6.2181 1.33687 -0.806585
head 2.04604 0.832162 -1.23037
rclavicle -4.73108e-014 2.22639e-014
rhumerus -41.5052 9.95588 -103.017
rradius 89.707
rwrist 12.3212
rhand -27.9467 32.2552
rfingers 7.12502
rthumb -1.3344 2.27965
lclavicle -4.73108e-014 2.22639e-014
lhumerus -52.1309 -23.1922 93.7771
lradius 86.8621
lwrist -3.58506
lhand -44.7814 -26.655
lfingers 7.12502
lthumb -17.5733 2.57078
rfemur 5.62559 -11.1806 10.3604
rtibia 60.7141
rfoot 10.8964 13.8246
rtoes -37.982
lfemur -23.3957 1.72099 -30.2136
ltibia 43.88
lfoot -19.4464 4.26734
ltoes 15.4495
261
root 13.0733 17.8723 19.0758 -345.463 -225.818 -345.457
lowerback -3.04754 2.89437 2.68885
upperback 5.77511 3.98003 -1.30896
thorax 8.0472 2.24272 -2.46474
lowerneck -0.864106 1.06521 5.85002
upperneck 6.29373 1.40972 -0.718279
head 2.18714 0.867728 -1.19826
rclavicle -6.75868e-014 4.77083e-015
rhumerus -41.7382 8.82838 -102.434
rradius 88.3994
rwrist 12.8397
rhand -28.5659 32.2116
rfingers 7.12502
rthumb -1.93249 2.24058
lclavicle -6.75868e-014 4.77083e-015
lhumerus -50.552 -23.3365 93.6151
lradius 87.1789
lwrist -3.8215
lhand -44.646 -26.0919
lfingers 7.12502
lthumb -17.443 3.14544
rfemur 4.43073 -11.2767 9.4854
rtibia 63.0715
rfoot 10.5663 13.5529
rtoes -37.2764
lfemur -22.8142 0.37158 -30.3316
ltibia 45.1351
lfoot -21.1797 5.09442
ltoes 14.4044
